<?xml version="1.0" encoding="utf-8"?>
<!-- Generator: Adobe Illustrator 16.0.0, SVG Export Plug-In . SVG Version: 6.00 Build 0)  -->
<!DOCTYPE svg PUBLIC "-//W3C//DTD SVG 1.0//EN" "http://www.w3.org/TR/2001/REC-SVG-20010904/DTD/svg10.dtd">
<svg version="1.0" id="Layer_1" xmlns="http://www.w3.org/2000/svg" xmlns:xlink="http://www.w3.org/1999/xlink" x="0px" y="0px"
	 width="100px" height="100px" viewBox="0 0 100 100" enable-background="new 0 0 100 100" xml:space="preserve">
<path fill="#FFB74D" d="M23.333,10C15.967,10,10,15.966,10,23.333c0,7.366,5.967,13.333,13.333,13.333s13.333-5.967,13.333-13.333
	C36.667,15.966,30.7,10,23.333,10z M23.333,30c-3.68,0-6.667-2.987-6.667-6.667s2.987-6.667,6.667-6.667S30,19.653,30,23.333
	S27.013,30,23.333,30z"/>
<path fill="#FFB74D" d="M90,23.333l-2.549-6.161c-6.608,2.737-11.95,7.544-15.361,13.706c-5.628-3.9-12.188-5.876-18.757-5.877
	v6.667c5.646,0.002,11.003,1.794,15.479,5.061c-9.938,0.312-18.917,4.425-25.479,10.992l4.713,4.712
	c5.773-5.778,13.428-8.982,21.575-9.081c-1.147,11.297-5.228,22.333-12.188,31.935C41.46,74.16,25.335,76.646,10,82.814V90
	c24.71-10.678,53.354-11.533,80-0.007v-7.188c-8.174-3.287-16.575-5.529-25.059-6.74c6.406-9.854,10.354-21.063,11.408-32.903
	c3.256,2.698,5.828,6.159,7.49,10.17L90,50.788c-2.02-4.876-5.096-8.981-8.825-12.227c2.744-1.229,5.732-1.895,8.825-1.895V30
	c-3.867,0-7.553,0.781-10.911,2.188C81.836,28.163,85.664,25.128,90,23.333z"/>
<rect x="16.667" y="56.667" fill="#4DD0E1" width="26.667" height="6.666"/>
<rect x="10" y="43.333" fill="#4DD0E1" width="13.333" height="6.667"/>
</svg>
