<?xml version="1.0" encoding="utf-8"?>
<!-- Generator: Adobe Illustrator 23.0.6, SVG Export Plug-In . SVG Version: 6.00 Build 0)  -->
<svg version="1.1" id="Layer_2" xmlns="http://www.w3.org/2000/svg" xmlns:xlink="http://www.w3.org/1999/xlink" x="0px" y="0px"
	 viewBox="0 0 316 309" style="enable-background:new 0 0 316 309;" xml:space="preserve">
<style type="text/css">
	.st0{fill:#FFFFFF;}
	.st1{font-family:'Montserrat-Regular';}
	.st2{font-size:10px;}
	.st3{font-family:'Montserrat-SemiBold';}
	.st4{font-size:12px;}
	.st5{fill:#7E7E7E;}
	.st6{fill:#676767;}
	.st7{fill:#949494;}
	.st8{fill:#969696;}
	.st9{fill:#787878;}
</style>
<g>
	<path class="st0" d="M308.6,309H7.4c-4.1,0-7.4-3.3-7.4-7.4V7.4C0,3.3,3.3,0,7.4,0h301.2c4.1,0,7.4,3.3,7.4,7.4v294.2
		C316,305.7,312.7,309,308.6,309z"/>
	<text transform="matrix(1 0 0 1 77.0873 71.2174)" class="st1 st2">Islamad, Pakistan</text>
	<text transform="matrix(1 0 0 1 77.0873 44.6087)" class="st3 st4">Location</text>
	<text transform="matrix(1 0 0 1 77.0873 135.3913)" class="st3 st4">Make A Call</text>
	<text transform="matrix(1 0 0 1 77.0873 229.0002)" class="st3 st4">Flaticon-Email</text>
	<text transform="matrix(1 0 0 1 77.0873 164.087)"><tspan x="0" y="0" class="st1 st2">+1-940-394-2948</tspan><tspan x="0" y="14" class="st1 st2">+1-389-385-3807</tspan></text>
	<text transform="matrix(1 0 0 1 77.0873 256.9565)"><tspan x="0" y="0" class="st1 st2">info@worldtour.com</tspan><tspan x="0" y="16" class="st1 st2">support@worldtour.com</tspan></text>
	<g>
		<path d="M59.7,52.8c-0.5-0.8-1.2-1.4-2.1-1.8c-1.7-0.9-3.5-1.3-5.3-1.6c-0.2,0-0.2-0.1-0.1-0.3c0.9-1.5,1.9-3,2.8-4.4
			c2.2-3.4,2.1-7.7-0.3-10.9c-2.5-3.4-6.9-4.7-10.8-3.2c-3.6,1.4-5.6,4.1-6.1,7.8c-0.3,2.3,0.3,4.4,1.5,6.3c1,1.5,1.9,2.9,2.8,4.4
			c0.1,0.2,0.1,0.2-0.1,0.2c-1.2,0.2-2.3,0.4-3.4,0.8c-1.3,0.4-2.5,0.9-3.5,1.9c-0.8,0.8-1.1,1.7-0.8,2.8c0.2,0.6,0.5,1.1,1,1.5
			c1.2,1,2.6,1.5,4,2c1.9,0.5,3.8,0.8,5.8,0.9c0.1,0,0.1,0,0.2,0.1h0.3c0,0,0.1,0,0.2,0h0c0,0,0.1,0,0.1,0h0.3c0.1-0.1,0.3,0,0.4,0
			h0c0,0,0,0,0,0c0.1,0,0.2,0,0.3,0h0.7c0.1-0.1,0.2,0,0.2,0c0,0,0,0,0,0h0.5c0,0,0,0,0,0h0c0,0,0.1,0,0.1,0h0.2
			c0-0.1,0.1-0.1,0.1-0.1c1.1,0,2.2-0.2,3.3-0.3c1.8-0.3,3.6-0.7,5.2-1.6c0.8-0.4,1.6-0.9,2.1-1.7C60.1,54.8,60.2,53.8,59.7,52.8z
			 M40.6,43.5c-1.6-2.6-1.6-5.3-0.1-8c1.2-2.1,3-3.3,5.3-3.8c4.1-0.7,7.9,1.8,8.9,5.8c0.5,2.2,0.2,4.2-1,6.1
			c-2.1,3.3-4.2,6.6-6.3,9.9c-0.1,0.1-0.1,0.2-0.2,0.3c-0.5-0.8-1-1.6-1.6-2.4C43.9,48.8,42.2,46.2,40.6,43.5z M58,54.8
			c-0.2,0.2-0.4,0.4-0.6,0.5c-1,0.7-2,1-3.2,1.3c-2.3,0.6-4.7,0.8-7.1,0.9c-2.5,0-4.9-0.2-7.3-0.9c-1.1-0.3-2.1-0.7-3-1.3
			c-0.3-0.2-0.6-0.4-0.8-0.8c-0.2-0.3-0.2-0.6,0-0.9c0.3-0.5,0.8-0.8,1.3-1.1c1.2-0.7,2.5-1,3.8-1.3c0.6-0.1,1.2-0.2,1.8-0.3
			c0.2,0,0.3,0,0.4,0.2c1,1.5,1.9,3.1,2.9,4.6c0.2,0.3,0.3,0.5,0.7,0.5c0.4,0.1,0.7-0.1,1-0.5c0.8-1.2,1.6-2.5,2.4-3.7
			c0.2-0.3,0.4-0.7,0.6-1c0.1-0.1,0.1-0.1,0.2-0.1c1.6,0.2,3.3,0.5,4.8,1.2c0.8,0.3,1.5,0.7,2,1.3C58.4,53.9,58.4,54.3,58,54.8z"/>
		<path d="M47.1,35.2c-2.4,0-4.3,1.9-4.3,4.3c0,2.4,1.9,4.3,4.3,4.3c2.4,0,4.3-1.9,4.3-4.3C51.4,37.1,49.5,35.1,47.1,35.2z M47.1,42
			c-1.4,0-2.6-1.2-2.6-2.6c0-1.4,1.2-2.6,2.6-2.6c1.4,0,2.6,1.2,2.6,2.6C49.7,40.9,48.5,42.1,47.1,42z"/>
	</g>
	<g>
		<path d="M59.9,141.5c-0.2-0.3-0.5-0.5-0.7-0.8c-1-1-1.9-2-3-3c-0.5-0.4-1.1-0.6-1.8-0.6c-0.8,0.1-1.3,0.4-1.8,0.9
			c-0.5,0.5-1.1,1.1-1.6,1.6c-0.1,0.1-0.1,0.2-0.3,0.1c-0.4-0.2-0.7-0.4-1.1-0.6c-1.2-0.8-2.4-1.8-3.4-2.9c-1-1.1-1.9-2.2-2.6-3.6
			c-0.1-0.2-0.1-0.2,0.1-0.4c0.7-0.6,1.4-1.3,2-2c0.8-1,0.8-2.3,0-3.3c-1.1-1.3-2.3-2.4-3.5-3.6c-1.1-1.1-2.4-1.1-3.6-0.1
			c-0.8,0.7-1.5,1.5-2.2,2.2c-0.5,0.6-0.9,1.2-1.1,2c0,0.2,0,0.3-0.1,0.5v0.3c0,0,0,0.1,0,0.1v0.5c0,0,0,0.1,0,0.1v0.2
			c0.1,0.1,0.1,0.2,0.1,0.3c0.1,1,0.4,1.9,0.7,2.8c1.2,3.2,3.1,5.9,5.4,8.4c1.9,2,4.1,3.8,6.5,5.1c2,1.1,4,2,6.3,2.2
			c1.3,0.1,2.5-0.1,3.5-1.1c0.8-0.8,1.6-1.6,2.4-2.5C60.8,143.8,60.7,142.4,59.9,141.5z M58.7,143.9c-0.1,0.1-0.1,0.2-0.2,0.3
			c-0.6,0.6-1.2,1.2-1.7,1.8c-0.7,0.7-1.6,1-2.6,0.9c-1.6-0.1-3-0.7-4.4-1.4c-3.2-1.6-6-3.7-8.3-6.5c-1.7-2-3.2-4.3-4.1-6.8
			c-0.4-1-0.7-2.1-0.7-3.4c0-0.8,0.3-1.6,1-2.3c0.6-0.6,1.1-1.1,1.7-1.7c0.7-0.7,1.2-0.7,1.9,0c1,1,2,2,3,3c0.1,0.1,0.1,0.1,0.2,0.2
			c0.4,0.5,0.5,1,0,1.5c-0.6,0.7-1.2,1.3-1.9,1.9c-0.6,0.6-0.7,1-0.3,1.8c0.7,1.5,1.7,2.8,2.8,4c1.3,1.4,2.7,2.6,4.3,3.6
			c0.3,0.2,0.7,0.4,1.1,0.6c0.5,0.3,1,0.2,1.5-0.2c0.6-0.6,1.2-1.2,1.8-1.8c0.1-0.1,0.2-0.2,0.2-0.2c0.5-0.5,1.1-0.5,1.5,0
			c0.6,0.6,1.3,1.2,1.9,1.9c0.5,0.5,1,1,1.5,1.5C59.1,142.9,59.1,143.4,58.7,143.9z"/>
		<path d="M50.3,121.2c0.6,0.2,1.2,0.3,1.8,0.5c2,0.6,3.7,1.6,5.2,2.9c1.7,1.5,3,3.2,3.8,5.2c0.5,1.1,0.8,2.2,1,3.3
			c0.1,0.4-0.2,0.8-0.6,0.9c-0.4,0.1-0.8-0.1-0.9-0.5c-0.2-0.6-0.3-1.2-0.5-1.8c-0.5-1.7-1.4-3.3-2.6-4.6c-1.6-1.8-3.5-3.1-5.8-3.9
			c-0.6-0.2-1.2-0.3-1.8-0.4c-0.4-0.1-0.6-0.3-0.7-0.6c-0.1-0.4,0.1-0.6,0.5-0.9c0,0,0,0,0,0C50,121.2,50.1,121.2,50.3,121.2z"/>
		<path class="st5" d="M35.1,128.6c0,0.1,0,0.1,0,0.2c0,0,0,0,0,0C35.1,128.7,35.1,128.7,35.1,128.6
			C35.1,128.6,35.1,128.6,35.1,128.6z"/>
		<path class="st6" d="M35.1,128.8C35.1,128.8,35.1,128.8,35.1,128.8c0,0.1,0,0.1,0,0.2c0,0,0,0,0,0
			C35.1,128.9,35.1,128.8,35.1,128.8z"/>
		<path class="st7" d="M35.1,129.1c0,0.1,0,0.1,0,0.2c0,0,0,0,0,0C35.1,129.2,35.1,129.1,35.1,129.1C35.1,129,35.1,129,35.1,129.1z"
			/>
		<path class="st8" d="M35.1,128.6C35.1,128.6,35.1,128.6,35.1,128.6c0,0,0-0.1,0-0.1C35.1,128.5,35.1,128.6,35.1,128.6z"/>
		<path class="st9" d="M35.1,129.1C35.1,129.1,35.1,129.1,35.1,129.1c0,0,0-0.1,0-0.1c0,0,0,0,0,0C35.1,129,35.1,129,35.1,129.1z"/>
		<path d="M49.9,126.1c0.5,0.1,1,0.2,1.4,0.3c3,1.1,5,3.2,5.8,6.3c0.1,0.2,0.1,0.4,0.1,0.6c0.1,0.4-0.2,0.8-0.6,0.9
			c-0.4,0.1-0.8-0.1-0.9-0.5c-0.1-0.5-0.2-1-0.4-1.5c-1-2.5-2.9-4-5.6-4.6c-0.4-0.1-0.7-0.3-0.7-0.7c0-0.4,0.2-0.7,0.5-0.8
			C49.7,126.1,49.8,126.1,49.9,126.1z"/>
	</g>
	<g>
		<path d="M59.9,231.6c-0.2-0.3-0.5-0.5-0.7-0.8c-1-1-1.9-2-3-3c-0.5-0.4-1.1-0.6-1.8-0.6c-0.8,0.1-1.3,0.4-1.8,0.9
			c-0.5,0.5-1.1,1.1-1.6,1.6c-0.1,0.1-0.1,0.2-0.3,0.1c-0.4-0.2-0.7-0.4-1.1-0.6c-1.2-0.8-2.4-1.8-3.4-2.9c-1-1.1-1.9-2.2-2.6-3.6
			c-0.1-0.2-0.1-0.2,0.1-0.4c0.7-0.6,1.4-1.3,2-2c0.8-1,0.8-2.3,0-3.3c-1.1-1.3-2.3-2.4-3.5-3.6c-1.1-1.1-2.4-1.1-3.6-0.1
			c-0.8,0.7-1.5,1.5-2.2,2.2c-0.5,0.6-0.9,1.2-1.1,2c0,0.2,0,0.3-0.1,0.5v0.3c0,0,0,0.1,0,0.1v0.5c0,0,0,0.1,0,0.1v0.2
			c0.1,0.1,0.1,0.2,0.1,0.3c0.1,1,0.4,1.9,0.7,2.8c1.2,3.2,3.1,5.9,5.4,8.4c1.9,2,4.1,3.8,6.5,5.1c2,1.1,4,2,6.3,2.2
			c1.3,0.1,2.5-0.1,3.5-1.1c0.8-0.8,1.6-1.6,2.4-2.5C60.8,234,60.7,232.6,59.9,231.6z M58.7,234c-0.1,0.1-0.1,0.2-0.2,0.3
			c-0.6,0.6-1.2,1.2-1.7,1.8c-0.7,0.7-1.6,1-2.6,0.9c-1.6-0.1-3-0.7-4.4-1.4c-3.2-1.6-6-3.7-8.3-6.5c-1.7-2-3.2-4.3-4.1-6.8
			c-0.4-1-0.7-2.1-0.7-3.4c0-0.8,0.3-1.6,1-2.3c0.6-0.6,1.1-1.1,1.7-1.7c0.7-0.7,1.2-0.7,1.9,0c1,1,2,2,3,3c0.1,0.1,0.1,0.1,0.2,0.2
			c0.4,0.5,0.5,1,0,1.5c-0.6,0.7-1.2,1.3-1.9,1.9c-0.6,0.6-0.7,1-0.3,1.8c0.7,1.5,1.7,2.8,2.8,4c1.3,1.4,2.7,2.6,4.3,3.6
			c0.3,0.2,0.7,0.4,1.1,0.6c0.5,0.3,1,0.2,1.5-0.2c0.6-0.6,1.2-1.2,1.8-1.8c0.1-0.1,0.2-0.2,0.2-0.2c0.5-0.5,1.1-0.5,1.5,0
			c0.6,0.6,1.3,1.2,1.9,1.9c0.5,0.5,1,1,1.5,1.5C59.1,233,59.1,233.6,58.7,234z"/>
		<path d="M50.3,211.4c0.6,0.2,1.2,0.3,1.8,0.5c2,0.6,3.7,1.6,5.2,2.9c1.7,1.5,3,3.2,3.8,5.2c0.5,1.1,0.8,2.2,1,3.3
			c0.1,0.4-0.2,0.8-0.6,0.9c-0.4,0.1-0.8-0.1-0.9-0.5c-0.2-0.6-0.3-1.2-0.5-1.8c-0.5-1.7-1.4-3.3-2.6-4.6c-1.6-1.8-3.5-3.1-5.8-3.9
			c-0.6-0.2-1.2-0.3-1.8-0.4c-0.4-0.1-0.6-0.3-0.7-0.6c-0.1-0.4,0.1-0.6,0.5-0.9c0,0,0,0,0,0C50,211.4,50.1,211.4,50.3,211.4z"/>
		<path class="st5" d="M35.1,218.8c0,0.1,0,0.1,0,0.2c0,0,0,0,0,0C35.1,218.9,35.1,218.9,35.1,218.8
			C35.1,218.8,35.1,218.8,35.1,218.8z"/>
		<path class="st6" d="M35.1,219C35.1,219,35.1,219,35.1,219c0,0.1,0,0.1,0,0.2c0,0,0,0,0,0C35.1,219.1,35.1,219,35.1,219z"/>
		<path class="st7" d="M35.1,219.2c0,0.1,0,0.1,0,0.2c0,0,0,0,0,0C35.1,219.3,35.1,219.3,35.1,219.2
			C35.1,219.2,35.1,219.2,35.1,219.2z"/>
		<path class="st8" d="M35.1,218.8C35.1,218.8,35.1,218.8,35.1,218.8c0,0,0-0.1,0-0.1C35.1,218.7,35.1,218.8,35.1,218.8z"/>
		<path class="st9" d="M35.1,219.2C35.1,219.2,35.1,219.2,35.1,219.2c0,0,0-0.1,0-0.1c0,0,0,0,0,0C35.1,219.2,35.1,219.2,35.1,219.2
			z"/>
		<path d="M49.9,216.3c0.5,0.1,1,0.2,1.4,0.3c3,1.1,5,3.2,5.8,6.3c0.1,0.2,0.1,0.4,0.1,0.6c0.1,0.4-0.2,0.8-0.6,0.9
			c-0.4,0.1-0.8-0.1-0.9-0.5c-0.1-0.5-0.2-1-0.4-1.5c-1-2.5-2.9-4-5.6-4.6c-0.4-0.1-0.7-0.3-0.7-0.7c0-0.4,0.2-0.7,0.5-0.8
			C49.7,216.3,49.8,216.3,49.9,216.3z"/>
	</g>
</g>
</svg>
